<?xml version="1.0" encoding="utf-8"?>
<!-- Generator: Adobe Illustrator 16.0.0, SVG Export Plug-In . SVG Version: 6.00 Build 0)  -->
<!DOCTYPE svg PUBLIC "-//W3C//DTD SVG 1.1//EN" "http://www.w3.org/Graphics/SVG/1.1/DTD/svg11.dtd">
<svg version="1.1" id="Layer_1" xmlns="http://www.w3.org/2000/svg" xmlns:xlink="http://www.w3.org/1999/xlink" x="0px" y="0px"
	 width="385.363px" height="349.143px" viewBox="0 0 385.363 349.143" enable-background="new 0 0 385.363 349.143"
	 xml:space="preserve">
<path fill="#F9F9F9" d="M152.787,0.799c-2.492,0.34-15.104,1.42-22.375,3.271c-31.396,7.996-60.108,21.846-86.229,40.973
	c-13.05,9.556-24.675,20.641-33.492,34.344c-2.695,4.188-4.947,8.694-7.032,13.229c-6.018,13.09-4.417,25.55,3.376,37.477
	c6.47,9.9,14.869,17.958,24.196,24.998c11.435,8.629,23.22,16.793,34.821,25.202c1.345,0.976,2.48,2.231,3.827,3.465
	c-0.753,0.664-1.055,1.032-1.442,1.255c-1.312,0.756-2.64,1.487-3.987,2.176c-11.237,5.735-22.044,12.18-31.847,20.146
	c-7.811,6.348-15.159,13.15-18.728,23.02c-3.312,9.162-3.753,18.199,1.021,27.017c2.409,4.448,5.642,8.3,10.972,8.88
	c5.984,0.648,12.203,1.652,18.039,0.73c33.401-5.28,54.192-36.666,48.155-69.703c-0.723-3.944-2.097-7.771-3.223-11.854
	c6.718-3.986,13.18-8.124,20.365-11.087c0.05,1.338-0.196,2.323-0.441,3.308c-2.579,10.301-4.838,20.643-3.03,31.354
	c1.29,7.646,3.461,14.983,8.269,21.267c3.166,4.135,7.37,5.377,12.389,4.239c3.955-0.896,6.673-3.497,8.404-6.856
	c3.838-7.441,7.336-15.062,10.979-22.604c0.519-1.075,1.069-2.136,1.606-3.202c0.292,0.092,0.586,0.186,0.878,0.275
	c-0.114,1.094-0.278,2.184-0.338,3.277c-0.319,6.041-0.939,12.108,1.139,17.988c2.484,7.031,8.322,8.811,13.855,3.801
	c3.053-2.765,5.759-6.149,7.835-9.718c11.445-19.653,21.31-40.097,29.716-61.235c0.509-1.274,1.247-2.459,1.878-3.685
	c0.315,0.051,0.633,0.102,0.946,0.151c1.595,11.063,5.808,21.209,10.861,30.896c-0.985,1.422-1.648,2.522-2.449,3.512
	c-6.303,7.785-12.645,15.541-18.944,23.328c-2.264,2.799-4.712,5.521-5.139,9.437c0.854,3.205,3.035,4.644,6.347,4.817
	c11.118,0.597,20.968-2.943,29.534-9.719c7.735-6.113,10.909-14.359,8.954-24.195c-0.835-4.193-2.131-8.301-3.174-12.272
	c7.156-12.171,14.3-24.323,21.426-36.443c3.29,9.646,6.521,19.126,9.888,28.99c0.12-0.197-0.013,0.137-0.242,0.377
	c-0.727,0.757-1.468,1.498-2.236,2.207c-6.045,5.578-11.293,11.765-14.799,19.289c-1.896,4.075-2.987,8.308-2.694,12.849
	c0.332,5.105,4.392,8.569,9.298,7.438c10.623-2.453,19.837-7.432,26.65-16.167c3.98-5.106,5.75-10.856,4.174-17.364
	c-0.758-3.123-1.465-6.261-2.167-9.276c0.524-0.419,0.77-0.694,1.071-0.837c0.738-0.343,1.488-0.676,2.265-0.921
	c4.866-1.539,8.063-2.727,10.507-3.87c-2.444,13.688,0.438,26.875,15.017,26.914c8.994-0.049,17.021-6.545,23.373-14.256
	c-2.024,5.562-3.812,11.33-5.633,16.651c-21.427,10.499-39.347,25.438-44.431,46.099c-3.409,13.549,1.689,21.012,6.701,27.358
	c4.752,5.916,8.998,5.571,13.119,3.668c17.978-8.647,30.945-45.914,41.055-76.876c17.938-9.096,32.9-18.85,40.503-33.41
	c3.332-6.127,3.589-11.321,2.98-13.296c-0.629-2.2-2.619-1.814-3.611-0.159c-7.951,13.013-20.111,26.817-36.79,37.61
	c7.641-22.439,19.115-50.361,24.774-63.865c4.895-11.868,2.33-21.336-1.123-25.107c-2.153-1.625-3.686-1.053-5.461,2.017
	c-6.903,12.028-14.896,32.922-23.178,50.236c-9.832,20.363-19.854,35.57-28.628,35.604c-5.178-0.032-6.254-7.819-2.666-19.132
	c4.566-14.57,8.328-21.865,14.581-34.023c7.211-13.854,7.794-23.35,1.854-30.07c-1.745-2.108-3.997-2.151-5.591,0.45
	c-9.091,14.989-16.318,30.829-21.121,44.024l0,0c-5.127,9.325-4.957,9.15-19.918,15.369c-1.146,0.477-2.326,0.865-3.604,1.338
	c-5.021-8.075-8.979-16.306-8.521-25.687c0.267-5.493,1.959-10.918,3.047-16.364c0.354-1.771,0.822-3.518,1.299-5.525
	c-1.528-0.691-2.645-1.607-3.782-1.634c-4.027-0.097-8.072-0.012-12.097,0.243c-3.426,0.215-5.362,2.197-6.182,5.6
	c-0.979,4.062-1.712,8.339-3.568,12.005c-6.053,11.938-12.562,23.64-18.936,35.415c-0.354,0.659-1.045,1.137-2.242,2.398
	c-1.668-4.135-3.436-7.635-4.504-11.331c-2.586-8.932-1.553-17.733,1.61-26.377c0.618-1.689,0.927-3.494,1.427-5.438
	c-1.488-0.798-2.593-1.901-3.681-1.884c-4.74,0.076-9.491,0.34-14.208,0.828c-1.955,0.202-3.056,1.668-3.625,3.746
	c-1.2,4.364-2.451,8.761-4.195,12.928c-4.134,9.882-8.468,19.685-12.91,29.434c-5.406,11.868-10.981,23.661-16.557,35.45
	c-0.69,1.461-1.839,2.705-3.085,4.498c-2.515-4.9-1.175-9.102-0.292-13.051c2.465-11.007,5.375-21.915,8.095-32.866
	c0.974-3.911-0.183-6.196-4.174-6.839c-2.185-0.351-4.562,0.502-7.188,0.856c0.079-1.307,0.396-3.02,0.243-4.688
	c-0.358-3.882-0.475-7.881-1.564-11.572c-1.11-3.76-4.326-5.826-8.366-5.6c-2.854,0.16-5.846,0.487-8.483,1.5
	c-8.715,3.343-15.295,9.579-21.422,16.419c-1.894,2.112-4.149,4.075-6.6,5.479c-9.096,5.209-18.336,10.166-27.538,15.189
	c-1.396,0.763-2.875,1.378-3.793,1.813c-8.355-6.838-16.332-13.258-24.188-19.82c-6.968-5.822-14.237-11.372-20.605-17.806
	C23.9,124.96,21.796,109.016,31.43,91.081c5.271-9.815,12.953-17.604,21.483-24.59c15.614-12.788,33.011-22.707,51.328-30.97
	c21.763-9.812,44.356-16.227,68.599-14.405c9.038,0.678,17.749,2.597,25.281,8.046c5.068,3.669,7.349,8.759,7.656,14.973
	c0.515,10.208-3.053,19.164-9.09,26.917c-22.507,28.902-52.648,41.527-88.832,40.009c-8.361-0.352-16.054-3.788-22.088-10.081
	c-0.653-0.682-1.549-1.132-2.332-1.688c-0.337,0.184-0.675,0.367-1.014,0.551c0.435,1.792,0.451,3.852,1.395,5.317
	c1.678,2.608,3.655,5.151,5.967,7.206c8.157,7.239,18.151,9.64,28.723,10.11c10.165,0.454,20.204-0.605,30.159-2.733
	c22.873-4.891,42.846-14.817,57.969-33.188c10.812-13.133,17.97-27.716,17.339-45.246c-0.328-9.073-3.3-17.101-9.785-23.616
	c-9.924-9.97-28.883-15.229-35.986-16.092S155.279,0.458,152.787,0.799z M80.359,206.781c-1.593,16.54-9.712,29.073-23.98,37.522
	c-4.953,2.937-10.341,4.855-16.248,4.148c-5.049-0.605-7.667-3.487-7.749-8.615c-0.146-9.129,3.805-16.676,9.829-23.15
	c8.477-9.108,18.807-15.867,29.334-22.32c1.963-1.203,3.982-2.316,6.576-3.818C80.073,196.211,80.871,201.472,80.359,206.781z
	 M152.181,154.036c-2.228,12.192-6.758,23.668-11.239,35.143c-2.326,5.953-4.827,11.844-7.424,17.688
	c-0.888,1.991-2.147,3.88-3.526,5.583c-2.204,2.722-4.704,2.474-5.75-0.827c-1.285-4.058-1.866-8.334-2.751-12.517
	c0.815-15.771,6.196-29.651,15.552-42.059c2.542-3.372,5.765-6.108,9.886-7.484C150.795,148.271,152.911,150.046,152.181,154.036z
	 M213.918,206.298c-3.569,3.878-7.229,7.975-12.899,8.561c-0.229-0.342-0.451-0.685-0.677-1.024
	c5.894-6.884,11.784-13.769,17.778-20.771C219.564,196.66,218.139,201.716,213.918,206.298z M265.109,192.729
	c-2.729,5.381-7.092,8.862-13.148,10.108c-1.813-6.358,6.146-21.014,13.888-25.696C268.389,182.565,267.621,187.772,265.109,192.729
	z M291.307,259.567c-4.475-5.262,3.117-36.692,30.824-55.801C310.92,237.742,294.555,263.584,291.307,259.567z"/>
<g>
	<path fill="#F9F9F9" d="M8.101,277.942h38.802v11.002H22.102v17.2h23.601v11.002H22.102v30.604H8.101V277.942z"/>
	<path fill="#F9F9F9" d="M111.337,277.942h14.001v58.808h27.103v11h-41.104V277.942z"/>
	<path fill="#F9F9F9" d="M214.573,277.942h41.202v11.002h-27.2v17.2h24.899v11.002h-24.899v19.604h27.399v11h-41.401V277.942z"/>
	<path fill="#F9F9F9" d="M339.212,311.445l-20.801-33.503h16.199l14.602,24.902l14.9-24.902h15.002l-21.002,33.503l22.9,36.305
		H364.51l-16.102-27.201l-16.301,27.201h-15.801L339.212,311.445z"/>
</g>
</svg>
